<svg width="88" height="88" viewBox="0 0 88 88" fill="none" xmlns="http://www.w3.org/2000/svg">
<g filter="url(#filter0_d_1019_8718)">
<rect x="24" y="22" width="40" height="40" rx="8" fill="url(#paint0_linear_1019_8718)"/>
<path d="M40.8135 45.9375L44.7499 42L40.8135 38.0625" stroke="#CFFAFE" stroke-width="2" stroke-linecap="round" stroke-linejoin="round"/>
<path d="M34.25 42H44.7472" stroke="#CFFAFE" stroke-width="2" stroke-linecap="round" stroke-linejoin="round"/>
<path d="M44.75 33.75H50C50.1989 33.75 50.3897 33.829 50.5303 33.9697C50.671 34.1103 50.75 34.3011 50.75 34.5V49.5C50.75 49.6989 50.671 49.8897 50.5303 50.0303C50.3897 50.171 50.1989 50.25 50 50.25H44.75" stroke="#CFFAFE" stroke-width="2" stroke-linecap="round" stroke-linejoin="round"/>
<rect x="25" y="23" width="38" height="38" rx="7" stroke="url(#paint1_linear_1019_8718)" stroke-opacity="0.25" stroke-width="2"/>
</g>
<defs>
<filter id="filter0_d_1019_8718" x="0" y="0" width="88" height="88" filterUnits="userSpaceOnUse" color-interpolation-filters="sRGB">
<feFlood flood-opacity="0" result="BackgroundImageFix"/>
<feColorMatrix in="SourceAlpha" type="matrix" values="0 0 0 0 0 0 0 0 0 0 0 0 0 0 0 0 0 0 127 0" result="hardAlpha"/>
<feOffset dy="2"/>
<feGaussianBlur stdDeviation="12"/>
<feComposite in2="hardAlpha" operator="out"/>
<feColorMatrix type="matrix" values="0 0 0 0 0.133333 0 0 0 0 0.827451 0 0 0 0 0.933333 0 0 0 0.3 0"/>
<feBlend mode="normal" in2="BackgroundImageFix" result="effect1_dropShadow_1019_8718"/>
<feBlend mode="normal" in="SourceGraphic" in2="effect1_dropShadow_1019_8718" result="shape"/>
</filter>
<linearGradient id="paint0_linear_1019_8718" x1="24" y1="22" x2="64" y2="62" gradientUnits="userSpaceOnUse">
<stop stop-color="#22D3EE"/>
<stop offset="1" stop-color="#155E75"/>
</linearGradient>
<linearGradient id="paint1_linear_1019_8718" x1="35.5" y1="22" x2="51" y2="62" gradientUnits="userSpaceOnUse">
<stop stop-color="white"/>
<stop offset="0.502471" stop-color="white" stop-opacity="0"/>
</linearGradient>
</defs>
</svg>
