<svg width="88" height="88" viewBox="0 0 88 88" fill="none" xmlns="http://www.w3.org/2000/svg">
<g filter="url(#filter0_d_1021_8990)">
<rect x="24" y="22" width="40" height="40" rx="8" fill="url(#paint0_linear_1021_8990)"/>
<path d="M36.5 34.25L51.5 50.75" stroke="white" stroke-width="2" stroke-linecap="round" stroke-linejoin="round"/>
<path d="M50.1776 49.2956C49.183 49.761 48.0981 50.0016 47 50H38.75C38.0055 49.9993 37.2696 49.8402 36.5913 49.5333C35.9129 49.2265 35.3076 48.7788 34.8155 48.2201C34.3234 47.6614 33.9557 47.0045 33.7369 46.2928C33.5181 45.5812 33.4532 44.8311 33.5465 44.0924C33.6397 43.3538 33.889 42.6434 34.2778 42.0084C34.6666 41.3735 35.186 40.8285 35.8015 40.4096C36.4171 39.9908 37.1146 39.7076 37.848 39.579C38.5813 39.4503 39.3336 39.4791 40.0549 39.6635" stroke="white" stroke-width="2" stroke-linecap="round" stroke-linejoin="round"/>
<path d="M42.5593 36.4555C44.0536 35.3578 45.9014 34.8525 47.7463 35.037C49.5912 35.2216 51.3023 36.0829 52.5495 37.4548C53.7967 38.8267 54.4915 40.612 54.4999 42.466C54.5084 44.3201 53.8297 46.1116 52.5951 47.4948" stroke="white" stroke-width="2" stroke-linecap="round" stroke-linejoin="round"/>
<path d="M39.5 42.5C39.4979 41.1604 39.8563 39.8448 40.5376 38.6914" stroke="white" stroke-width="2" stroke-linecap="round" stroke-linejoin="round"/>
<rect x="25" y="23" width="38" height="38" rx="7" stroke="url(#paint1_linear_1021_8990)" stroke-opacity="0.25" stroke-width="2"/>
</g>
<defs>
<filter id="filter0_d_1021_8990" x="0" y="0" width="88" height="88" filterUnits="userSpaceOnUse" color-interpolation-filters="sRGB">
<feFlood flood-opacity="0" result="BackgroundImageFix"/>
<feColorMatrix in="SourceAlpha" type="matrix" values="0 0 0 0 0 0 0 0 0 0 0 0 0 0 0 0 0 0 127 0" result="hardAlpha"/>
<feOffset dy="2"/>
<feGaussianBlur stdDeviation="12"/>
<feComposite in2="hardAlpha" operator="out"/>
<feColorMatrix type="matrix" values="0 0 0 0 0.133333 0 0 0 0 0.827451 0 0 0 0 0.933333 0 0 0 0.3 0"/>
<feBlend mode="normal" in2="BackgroundImageFix" result="effect1_dropShadow_1021_8990"/>
<feBlend mode="normal" in="SourceGraphic" in2="effect1_dropShadow_1021_8990" result="shape"/>
</filter>
<linearGradient id="paint0_linear_1021_8990" x1="24" y1="22" x2="64" y2="62" gradientUnits="userSpaceOnUse">
<stop stop-color="#22D3EE"/>
<stop offset="1" stop-color="#155E75"/>
</linearGradient>
<linearGradient id="paint1_linear_1021_8990" x1="35.5" y1="22" x2="51" y2="62" gradientUnits="userSpaceOnUse">
<stop stop-color="white"/>
<stop offset="0.502471" stop-color="white" stop-opacity="0"/>
</linearGradient>
</defs>
</svg>
