<svg width="89" height="88" viewBox="0 0 89 88" fill="none" xmlns="http://www.w3.org/2000/svg">
<g filter="url(#filter0_d_1021_9078)">
<rect x="24.6666" y="22" width="40" height="40" rx="8" fill="url(#paint0_linear_1021_9078)"/>
<path d="M36.7501 36C36.7501 35.9015 36.7695 35.804 36.8072 35.713C36.8449 35.622 36.9001 35.5393 36.9698 35.4697C37.0394 35.4001 37.1221 35.3448 37.2131 35.3071C37.3041 35.2694 37.4016 35.25 37.5001 35.25L41.5027 35.2501C41.3132 34.85 41.228 34.4084 41.255 33.9666C41.2819 33.5247 41.4202 33.0968 41.657 32.7227C41.8937 32.3486 42.2212 32.0405 42.6091 31.827C42.9969 31.6134 43.4324 31.5015 43.8751 31.5015C44.3178 31.5015 44.7533 31.6134 45.1411 31.827C45.529 32.0405 45.8565 32.3486 46.0932 32.7227C46.33 33.0968 46.4683 33.5247 46.4952 33.9666C46.5222 34.4084 46.437 34.85 46.2475 35.2501L50.2501 35.25C50.3486 35.25 50.4461 35.2694 50.5371 35.3071C50.6281 35.3448 50.7108 35.4001 50.7804 35.4697C50.8501 35.5393 50.9053 35.622 50.943 35.713C50.9807 35.804 51.0001 35.9015 51.0001 36L51.0001 40.3777C51.4002 40.1882 51.8417 40.1029 52.2836 40.1299C52.7255 40.1569 53.1533 40.2952 53.5274 40.5319C53.9015 40.7686 54.2097 41.0962 54.4232 41.484C54.6367 41.8718 54.7487 42.3073 54.7487 42.75C54.7487 43.1927 54.6367 43.6282 54.4232 44.0161C54.2097 44.4039 53.9015 44.7314 53.5274 44.9681C53.1533 45.2049 52.7255 45.3432 52.2836 45.3701C51.8417 45.3971 51.4002 45.3119 51.0001 45.1224L51.0001 49.5C51.0001 49.6989 50.9211 49.8897 50.7804 50.0303C50.6398 50.171 50.449 50.25 50.2501 50.25L46.2475 50.25C46.437 49.8499 46.5222 49.4084 46.4952 48.9665C46.4683 48.5246 46.33 48.0967 46.0932 47.7227C45.8565 47.3486 45.529 47.0404 45.1411 46.8269C44.7533 46.6134 44.3178 46.5014 43.8751 46.5014C43.4324 46.5014 42.9969 46.6134 42.6091 46.8269C42.2212 47.0404 41.8937 47.3486 41.657 47.7227C41.4202 48.0967 41.2819 48.5246 41.255 48.9665C41.228 49.4084 41.3132 49.8499 41.5027 50.25L37.5001 50.25C37.3012 50.25 37.1104 50.171 36.9698 50.0303C36.8291 49.8897 36.7501 49.6989 36.7501 49.5L36.7501 36Z" stroke="#F8FAFC" stroke-width="2" stroke-linecap="round" stroke-linejoin="round"/>
<rect x="25.6666" y="23" width="38" height="38" rx="7" stroke="url(#paint1_linear_1021_9078)" stroke-opacity="0.25" stroke-width="2"/>
</g>
<defs>
<filter id="filter0_d_1021_9078" x="0.666626" y="0" width="88" height="88" filterUnits="userSpaceOnUse" color-interpolation-filters="sRGB">
<feFlood flood-opacity="0" result="BackgroundImageFix"/>
<feColorMatrix in="SourceAlpha" type="matrix" values="0 0 0 0 0 0 0 0 0 0 0 0 0 0 0 0 0 0 127 0" result="hardAlpha"/>
<feOffset dy="2"/>
<feGaussianBlur stdDeviation="12"/>
<feComposite in2="hardAlpha" operator="out"/>
<feColorMatrix type="matrix" values="0 0 0 0 0.133333 0 0 0 0 0.827451 0 0 0 0 0.933333 0 0 0 0.3 0"/>
<feBlend mode="normal" in2="BackgroundImageFix" result="effect1_dropShadow_1021_9078"/>
<feBlend mode="normal" in="SourceGraphic" in2="effect1_dropShadow_1021_9078" result="shape"/>
</filter>
<linearGradient id="paint0_linear_1021_9078" x1="24.6666" y1="22" x2="64.6666" y2="62" gradientUnits="userSpaceOnUse">
<stop stop-color="#22D3EE"/>
<stop offset="1" stop-color="#155E75"/>
</linearGradient>
<linearGradient id="paint1_linear_1021_9078" x1="36.1666" y1="22" x2="51.6666" y2="62" gradientUnits="userSpaceOnUse">
<stop stop-color="white"/>
<stop offset="0.502471" stop-color="white" stop-opacity="0"/>
</linearGradient>
</defs>
</svg>
