<svg width="24" height="25" viewBox="0 0 24 25" fill="none" xmlns="http://www.w3.org/2000/svg">
<path d="M4.5 4.25L19.5 20.75" stroke="white" stroke-width="2" stroke-linecap="round" stroke-linejoin="round"/>
<path d="M18.1776 19.2956C17.183 19.761 16.0981 20.0016 15 20H6.75002C6.00549 19.9993 5.26963 19.8402 4.59129 19.5333C3.91294 19.2265 3.30762 18.7788 2.8155 18.2201C2.32338 17.6614 1.95573 17.0045 1.73694 16.2928C1.51814 15.5812 1.45322 14.8311 1.54647 14.0924C1.63972 13.3538 1.88902 12.6434 2.27781 12.0084C2.66661 11.3735 3.186 10.8285 3.80153 10.4096C4.41706 9.99077 5.11464 9.70762 5.84797 9.57897C6.5813 9.45032 7.3336 9.47912 8.05495 9.66345" stroke="white" stroke-width="2" stroke-linecap="round" stroke-linejoin="round"/>
<path d="M10.5593 6.45539C12.0535 5.35772 13.9014 4.85241 15.7462 5.03696C17.5911 5.22151 19.3022 6.08285 20.5494 7.45476C21.7966 8.82667 22.4915 10.6119 22.4999 12.466C22.5083 14.32 21.8297 16.1115 20.595 17.4947" stroke="white" stroke-width="2" stroke-linecap="round" stroke-linejoin="round"/>
<path d="M7.50001 12.5C7.49789 11.1604 7.85629 9.84484 8.53763 8.69141" stroke="white" stroke-width="2" stroke-linecap="round" stroke-linejoin="round"/>
</svg>
