<svg width="24" height="24" viewBox="0 0 24 24" fill="none" xmlns="http://www.w3.org/2000/svg">
<path d="M3.75004 5.99997C3.75004 5.90148 3.76944 5.80395 3.80713 5.71295C3.84482 5.62196 3.90007 5.53928 3.96971 5.46964C4.03936 5.39999 4.12204 5.34475 4.21303 5.30706C4.30403 5.26937 4.40156 5.24997 4.50005 5.24997L8.50267 5.25002C8.31317 4.84992 8.22795 4.40839 8.25491 3.9665C8.28188 3.52461 8.42017 3.09672 8.65692 2.72263C8.89367 2.34855 9.22118 2.04041 9.609 1.82689C9.99681 1.61337 10.4323 1.5014 10.875 1.5014C11.3177 1.5014 11.7533 1.61337 12.1411 1.82689C12.5289 2.04041 12.8564 2.34855 13.0932 2.72263C13.3299 3.09672 13.4682 3.52461 13.4952 3.9665C13.5221 4.40839 13.4369 4.84992 13.2474 5.25002L17.25 5.24997C17.3485 5.24997 17.4461 5.26937 17.537 5.30706C17.628 5.34475 17.7107 5.4 17.7804 5.46964C17.85 5.53929 17.9053 5.62197 17.943 5.71296C17.9806 5.80396 18 5.90149 18 5.99998L18 10.3776C18.4001 10.1881 18.8416 10.1029 19.2835 10.1298C19.7254 10.1568 20.1533 10.2951 20.5274 10.5318C20.9015 10.7686 21.2096 11.0961 21.4231 11.4839C21.6366 11.8717 21.7486 12.3072 21.7486 12.75C21.7486 13.1927 21.6366 13.6282 21.4231 14.016C21.2096 14.4038 20.9015 14.7313 20.5274 14.9681C20.1533 15.2048 19.7254 15.3431 19.2835 15.3701C18.8416 15.397 18.4001 15.3118 18 15.1223L18 19.4999C18 19.6988 17.921 19.8896 17.7804 20.0303C17.6397 20.1709 17.449 20.2499 17.25 20.2499L13.2474 20.25C13.4369 19.8499 13.5221 19.4083 13.4952 18.9665C13.4682 18.5246 13.3299 18.0967 13.0932 17.7226C12.8564 17.3485 12.5289 17.0404 12.1411 16.8269C11.7533 16.6133 11.3177 16.5014 10.875 16.5014C10.4323 16.5014 9.99681 16.6133 9.609 16.8269C9.22118 17.0404 8.89367 17.3485 8.65692 17.7226C8.42017 18.0967 8.28188 18.5246 8.25491 18.9665C8.22795 19.4083 8.31318 19.8499 8.50267 20.25L4.50003 20.2499C4.30112 20.2499 4.11036 20.1709 3.96971 20.0303C3.82906 19.8896 3.75004 19.6988 3.75004 19.4999L3.75004 5.99997Z" stroke="#F8FAFC" stroke-width="2" stroke-linecap="round" stroke-linejoin="round"/>
</svg>
