<svg width="120" height="104" viewBox="0 0 120 104" fill="none" xmlns="http://www.w3.org/2000/svg">
<g opacity="0.9">
<g style="mix-blend-mode:lighten">
<rect x="34.1637" y="28.0352" width="2.32727" height="8.875" rx="1.16364" fill="#F1F5F9"/>
</g>
<g style="mix-blend-mode:lighten">
<rect x="39.1637" y="19.5352" width="2.32727" height="25.875" rx="1.16364" fill="#F1F5F9"/>
</g>
<g style="mix-blend-mode:lighten">
<rect x="44.1637" y="25.0352" width="2.32728" height="14.875" rx="1.16364" fill="#F1F5F9"/>
</g>
<g style="mix-blend-mode:lighten">
<rect x="49.1637" y="22.0352" width="2.32727" height="20.875" rx="1.16364" fill="#F1F5F9"/>
</g>
<g style="mix-blend-mode:lighten">
<rect x="54.1637" y="13.5352" width="2.32727" height="37.875" rx="1.16363" fill="#F1F5F9"/>
</g>
<g style="mix-blend-mode:lighten">
<rect x="59.1637" y="9.03516" width="2.32728" height="46.875" rx="1.16364" fill="#F1F5F9"/>
</g>
<g style="mix-blend-mode:lighten">
<rect x="64.1637" y="13.5352" width="2.32727" height="37.875" rx="1.16364" fill="#F1F5F9"/>
</g>
<g style="mix-blend-mode:lighten">
<rect x="69.1637" y="22.0352" width="2.32727" height="20.875" rx="1.16364" fill="#F1F5F9"/>
</g>
<g style="mix-blend-mode:lighten">
<rect x="74.1637" y="25.0352" width="2.32727" height="14.875" rx="1.16364" fill="#F1F5F9"/>
</g>
<g style="mix-blend-mode:lighten">
<rect x="79.1637" y="19.5352" width="2.32727" height="25.875" rx="1.16363" fill="#F1F5F9"/>
</g>
<g style="mix-blend-mode:lighten">
<rect x="84.1637" y="28.0352" width="2.32727" height="8.875" rx="1.16364" fill="#F1F5F9"/>
</g>
</g>
<path d="M0.566406 79.8785H6.78089C10.0479 79.8785 11.788 78.174 11.788 75.8586C11.788 73.7066 10.2468 72.4069 8.59198 72.3288V72.1867C10.1048 71.8458 11.2198 70.7734 11.2198 69.0617C11.2198 66.8813 9.6005 65.333 6.39027 65.333H0.566406V79.8785ZM3.64169 77.3643V73.5007H6.21982C7.69709 73.5007 8.61328 74.3529 8.61328 75.5532C8.61328 76.647 7.86754 77.3643 6.14879 77.3643H3.64169ZM3.64169 71.4197V67.8188H5.97834C7.34198 67.8188 8.11612 68.522 8.11612 69.5731C8.11612 70.7237 7.17862 71.4197 5.92152 71.4197H3.64169Z" fill="#F1F5F9"/>
<path d="M18.7038 80.0916C21.4027 80.0916 23.2209 78.7776 23.647 76.7535L20.8487 76.5688C20.5433 77.3998 19.7621 77.833 18.7536 77.833C17.2408 77.833 16.282 76.8316 16.282 75.2052V75.1981H23.7109V74.3671C23.7109 70.6597 21.4666 68.8274 18.5831 68.8274C15.3729 68.8274 13.2919 71.1072 13.2919 74.4737C13.2919 77.9325 15.3445 80.0916 18.7038 80.0916ZM16.282 73.3231C16.3459 72.0802 17.2905 71.0859 18.6328 71.0859C19.9467 71.0859 20.8558 72.0234 20.8629 73.3231H16.282Z" fill="#F1F5F9"/>
<path d="M28.7962 80.0845C30.4084 80.0845 31.4524 79.3813 31.9851 78.3657H32.0703V79.8785H34.9396V72.5205C34.9396 69.9211 32.7379 68.8274 30.3089 68.8274C27.6953 68.8274 25.9766 70.0774 25.5575 72.066L28.3558 72.2933C28.5618 71.5688 29.2081 71.0362 30.2947 71.0362C31.3246 71.0362 31.9141 71.5546 31.9141 72.4495V72.4921C31.9141 73.1953 31.1683 73.2876 29.272 73.4722C27.1129 73.6711 25.174 74.3955 25.174 76.8316C25.174 78.9907 26.7152 80.0845 28.7962 80.0845ZM29.6626 77.9964C28.7322 77.9964 28.0646 77.5632 28.0646 76.7322C28.0646 75.8799 28.7678 75.4609 29.8331 75.3117C30.4936 75.2194 31.5732 75.0632 31.9354 74.8217V75.9793C31.9354 77.1228 30.9908 77.9964 29.6626 77.9964Z" fill="#F1F5F9"/>
<path d="M43.0895 68.9694H41.0369V66.3558H38.0114V68.9694H36.5199V71.2421H38.0114V76.924C37.9972 79.0617 39.4531 80.12 41.6477 80.0276C42.429 79.9992 42.983 79.843 43.2884 79.7436L42.8125 77.4921C42.6634 77.5205 42.3438 77.5916 42.0597 77.5916C41.456 77.5916 41.0369 77.3643 41.0369 76.5262V71.2421H43.0895V68.9694Z" fill="#F1F5F9"/>
<path d="M49.1921 67.8686H53.6452V79.8785H56.685V67.8686H61.1381V65.333H49.1921V67.8686Z" fill="#F1F5F9"/>
<path d="M61.9158 79.8785H64.9414V73.7066C64.9414 72.3643 65.9215 71.441 67.2567 71.441C67.6758 71.441 68.2511 71.512 68.5352 71.6043V68.9197C68.2653 68.8558 67.8888 68.8132 67.5835 68.8132C66.3619 68.8132 65.3604 69.5234 64.9627 70.8728H64.8491V68.9694H61.9158V79.8785Z" fill="#F1F5F9"/>
<path d="M70.0994 79.8785H73.125V68.9694H70.0994V79.8785ZM71.6193 67.5632C72.5213 67.5632 73.2599 66.8742 73.2599 66.0291C73.2599 65.191 72.5213 64.5021 71.6193 64.5021C70.7244 64.5021 69.9858 65.191 69.9858 66.0291C69.9858 66.8742 70.7244 67.5632 71.6193 67.5632Z" fill="#F1F5F9"/>
<path d="M80.4634 84.1967C83.5813 84.1967 85.7972 82.7762 85.7972 79.985V68.9694H82.793V70.8018H82.6793C82.2745 69.914 81.3867 68.8274 79.5614 68.8274C77.168 68.8274 75.1438 70.6882 75.1438 74.4026C75.1438 78.0319 77.1111 79.7222 79.5685 79.7222C81.3086 79.7222 82.2816 78.8487 82.6793 77.9467H82.8072V79.9424C82.8072 81.441 81.8484 82.0234 80.5344 82.0234C79.1992 82.0234 78.5245 81.441 78.2759 80.7805L75.4776 81.1569C75.8398 82.8757 77.5231 84.1967 80.4634 84.1967ZM80.5273 77.4495C79.043 77.4495 78.2333 76.2705 78.2333 74.3884C78.2333 72.5347 79.0288 71.235 80.5273 71.235C81.9975 71.235 82.8214 72.4779 82.8214 74.3884C82.8214 76.3132 81.9833 77.4495 80.5273 77.4495Z" fill="#F1F5F9"/>
<path d="M93.1197 84.1967C96.2376 84.1967 98.4535 82.7762 98.4535 79.985V68.9694H95.4492V70.8018H95.3356C94.9308 69.914 94.043 68.8274 92.2177 68.8274C89.8242 68.8274 87.8001 70.6882 87.8001 74.4026C87.8001 78.0319 89.7674 79.7222 92.2248 79.7222C93.9648 79.7222 94.9379 78.8487 95.3356 77.9467H95.4634V79.9424C95.4634 81.441 94.5046 82.0234 93.1907 82.0234C91.8555 82.0234 91.1808 81.441 90.9322 80.7805L88.1339 81.1569C88.4961 82.8757 90.1793 84.1967 93.1197 84.1967ZM93.1836 77.4495C91.6992 77.4495 90.8896 76.2705 90.8896 74.3884C90.8896 72.5347 91.685 71.235 93.1836 71.235C94.6538 71.235 95.4776 72.4779 95.4776 74.3884C95.4776 76.3132 94.6396 77.4495 93.1836 77.4495Z" fill="#F1F5F9"/>
<path d="M105.833 80.0916C108.532 80.0916 110.35 78.7776 110.776 76.7535L107.978 76.5688C107.672 77.3998 106.891 77.833 105.882 77.833C104.37 77.833 103.411 76.8316 103.411 75.2052V75.1981H110.84V74.3671C110.84 70.6597 108.596 68.8274 105.712 68.8274C102.502 68.8274 100.421 71.1072 100.421 74.4737C100.421 77.9325 102.473 80.0916 105.833 80.0916ZM103.411 73.3231C103.475 72.0802 104.419 71.0859 105.762 71.0859C107.076 71.0859 107.985 72.0234 107.992 73.3231H103.411Z" fill="#F1F5F9"/>
<path d="M112.814 79.8785H115.84V73.7066C115.84 72.3643 116.82 71.441 118.155 71.441C118.574 71.441 119.15 71.512 119.434 71.6043V68.9197C119.164 68.8558 118.787 68.8132 118.482 68.8132C117.26 68.8132 116.259 69.5234 115.861 70.8728H115.748V68.9694H112.814V79.8785Z" fill="#F1F5F9"/>
<path d="M15.7639 101.043H17.0082V100.025H17.1147C17.3448 100.442 17.8136 101.171 19.0068 101.171C20.592 101.171 21.7425 99.9012 21.7425 97.7833C21.7425 95.6611 20.5749 94.4126 18.994 94.4126C17.7795 94.4126 17.3406 95.154 17.1147 95.5589H17.038V92.316H15.7639V101.043ZM17.0124 97.7705C17.0124 96.4026 17.609 95.495 18.7212 95.495C19.8761 95.495 20.4556 96.4708 20.4556 97.7705C20.4556 99.083 19.859 100.084 18.7212 100.084C17.6261 100.084 17.0124 99.1469 17.0124 97.7705Z" fill="#94A3B8"/>
<path d="M23.7443 103.498C24.7969 103.498 25.4617 102.948 25.8409 101.917L28.5469 94.5106L27.1705 94.4978L25.5128 99.5773H25.4446L23.7869 94.4978H22.4233L24.8182 101.128L24.6605 101.563C24.3367 102.432 23.8807 102.505 23.1818 102.313L22.875 103.357C23.0284 103.425 23.3608 103.498 23.7443 103.498Z" fill="#94A3B8"/>
<path d="M33.7628 101.043L34.5639 98.7336H37.973L38.7699 101.043H40.1676L37.027 92.316H35.5057L32.3651 101.043H33.7628ZM34.9474 97.6256L36.2344 93.9012H36.3026L37.5895 97.6256H34.9474Z" fill="#94A3B8"/>
<path d="M47.0401 92.316V97.9495C47.0401 99.1342 46.222 99.9864 44.8924 99.9864C43.5671 99.9864 42.7447 99.1342 42.7447 97.9495V92.316H41.4279V98.056C41.4279 99.8884 42.8001 101.188 44.8924 101.188C46.9847 101.188 48.3612 99.8884 48.3612 98.056V92.316H47.0401Z" fill="#94A3B8"/>
<path d="M53.1009 101.043C55.7599 101.043 57.2983 99.3941 57.2983 96.6668C57.2983 93.9523 55.7599 92.316 53.1903 92.316H50.2756V101.043H53.1009ZM51.5923 99.8927V93.4665H53.1094C55.0185 93.4665 56.0028 94.6086 56.0028 96.6668C56.0028 98.7336 55.0185 99.8927 53.0284 99.8927H51.5923Z" fill="#94A3B8"/>
<path d="M60.2525 92.316H58.9357V101.043H60.2525V92.316Z" fill="#94A3B8"/>
<path d="M69.7511 96.6796C69.7511 93.8884 68.0806 92.1967 65.8221 92.1967C63.555 92.1967 61.8889 93.8884 61.8889 96.6796C61.8889 99.4665 63.555 101.163 65.8221 101.163C68.0806 101.163 69.7511 99.4708 69.7511 96.6796ZM68.4471 96.6796C68.4471 98.806 67.3221 99.9609 65.8221 99.9609C64.3178 99.9609 63.1971 98.806 63.1971 96.6796C63.1971 94.5532 64.3178 93.3984 65.8221 93.3984C67.3221 93.3984 68.4471 94.5532 68.4471 96.6796Z" fill="#94A3B8"/>
<path d="M71.3928 101.043H72.7095V97.2378H76.4169V96.1086H72.7095V93.4495H76.8047V92.316H71.3928V101.043Z" fill="#94A3B8"/>
<path d="M86.005 96.6796C86.005 93.8884 84.3345 92.1967 82.076 92.1967C79.809 92.1967 78.1428 93.8884 78.1428 96.6796C78.1428 99.4665 79.809 101.163 82.076 101.163C84.3345 101.163 86.005 99.4708 86.005 96.6796ZM84.701 96.6796C84.701 98.806 83.576 99.9609 82.076 99.9609C80.5717 99.9609 79.451 98.806 79.451 96.6796C79.451 94.5532 80.5717 93.3984 82.076 93.3984C83.576 93.3984 84.701 94.5532 84.701 96.6796Z" fill="#94A3B8"/>
<path d="M87.6467 101.043H88.9634V97.7407H90.7532C90.783 97.7407 90.8086 97.7407 90.8384 97.7407L92.6112 101.043H94.1112L92.1765 97.5106C93.2461 97.1143 93.7788 96.2236 93.7788 95.0518C93.7788 93.4452 92.7816 92.316 90.7575 92.316H87.6467V101.043ZM88.9634 96.6072V93.4452H90.6168C91.9165 93.4452 92.4535 94.0631 92.4535 95.0518C92.4535 96.0361 91.9165 96.6072 90.6339 96.6072H88.9634Z" fill="#94A3B8"/>
<path d="M95.381 92.316V101.043H96.6339V94.7236H96.7149L99.2887 101.03H100.328L102.902 94.7279H102.983V101.043H104.236V92.316H102.638L99.8597 99.1001H99.7575L96.9791 92.316H95.381Z" fill="#94A3B8"/>
</svg>
