<svg width="149" height="44" viewBox="0 0 149 44" fill="none" xmlns="http://www.w3.org/2000/svg">
<g opacity="0.9">
<g style="mix-blend-mode:lighten">
<rect x="3.08179" y="19.7666" width="1.16364" height="4.4375" rx="0.581818" fill="#F1F5F9"/>
</g>
<g style="mix-blend-mode:lighten">
<rect x="5.58179" y="15.5166" width="1.16364" height="12.9375" rx="0.581818" fill="#F1F5F9"/>
</g>
<g style="mix-blend-mode:lighten">
<rect x="8.08179" y="18.2666" width="1.16364" height="7.4375" rx="0.581818" fill="#F1F5F9"/>
</g>
<g style="mix-blend-mode:lighten">
<rect x="10.5818" y="16.7666" width="1.16364" height="10.4375" rx="0.581818" fill="#F1F5F9"/>
</g>
<g style="mix-blend-mode:lighten">
<rect x="13.0818" y="12.5166" width="1.16364" height="18.9375" rx="0.581818" fill="#F1F5F9"/>
</g>
<g style="mix-blend-mode:lighten">
<rect x="15.5818" y="10.2666" width="1.16364" height="23.4375" rx="0.581818" fill="#F1F5F9"/>
</g>
<g style="mix-blend-mode:lighten">
<rect x="18.0818" y="12.5166" width="1.16364" height="18.9375" rx="0.581818" fill="#F1F5F9"/>
</g>
<g style="mix-blend-mode:lighten">
<rect x="20.5818" y="16.7666" width="1.16364" height="10.4375" rx="0.581818" fill="#F1F5F9"/>
</g>
<g style="mix-blend-mode:lighten">
<rect x="23.0818" y="18.2666" width="1.16364" height="7.4375" rx="0.581818" fill="#F1F5F9"/>
</g>
<g style="mix-blend-mode:lighten">
<rect x="25.5818" y="15.5166" width="1.16364" height="12.9375" rx="0.581818" fill="#F1F5F9"/>
</g>
<g style="mix-blend-mode:lighten">
<rect x="28.0818" y="19.7666" width="1.16364" height="4.4375" rx="0.581819" fill="#F1F5F9"/>
</g>
</g>
<path d="M41.1378 21H46.7308C49.6712 21 51.2372 19.4659 51.2372 17.3821C51.2372 15.4453 49.8501 14.2756 48.3608 14.2053V14.0774C49.7223 13.7706 50.7259 12.8054 50.7259 11.2649C50.7259 9.30256 49.2685 7.90909 46.3793 7.90909H41.1378V21ZM43.9055 18.7372V15.2599H46.2259C47.5554 15.2599 48.38 16.027 48.38 17.1072C48.38 18.0916 47.7088 18.7372 46.1619 18.7372H43.9055ZM43.9055 13.3871V10.1463H46.0085C47.2358 10.1463 47.9325 10.7791 47.9325 11.7251C47.9325 12.7607 47.0888 13.3871 45.9574 13.3871H43.9055ZM57.4615 21.1918C59.8904 21.1918 61.5268 20.0092 61.9103 18.1875L59.3919 18.0213C59.117 18.7692 58.4139 19.1591 57.5062 19.1591C56.1447 19.1591 55.2818 18.2578 55.2818 16.794V16.7876H61.9679V16.0398C61.9679 12.7031 59.948 11.054 57.3528 11.054C54.4636 11.054 52.5907 13.1058 52.5907 16.1357C52.5907 19.2486 54.438 21.1918 57.4615 21.1918ZM55.2818 15.1001C55.3393 13.9815 56.1895 13.0866 57.3976 13.0866C58.5801 13.0866 59.3983 13.9304 59.4047 15.1001H55.2818ZM66.5446 21.1854C67.9956 21.1854 68.9352 20.5526 69.4146 19.6385H69.4913V21H72.0737V14.3778C72.0737 12.0384 70.0922 11.054 67.9061 11.054C65.5538 11.054 64.0069 12.179 63.6298 13.9688L66.1483 14.1733C66.3336 13.5213 66.9153 13.0419 67.8933 13.0419C68.8201 13.0419 69.3507 13.5085 69.3507 14.3139V14.3523C69.3507 14.9851 68.6795 15.0682 66.9728 15.2344C65.0297 15.4134 63.2846 16.0653 63.2846 18.2578C63.2846 20.201 64.6717 21.1854 66.5446 21.1854ZM67.3244 19.3061C66.487 19.3061 65.8862 18.9162 65.8862 18.1683C65.8862 17.4013 66.519 17.0241 67.4778 16.8899C68.0723 16.8068 69.0439 16.6662 69.3699 16.4489V17.4908C69.3699 18.5199 68.5197 19.3061 67.3244 19.3061ZM79.4086 11.1818H77.5613V8.82955H74.8382V11.1818H73.4959V13.2273H74.8382V18.3409C74.8255 20.2649 76.1358 21.2173 78.111 21.1342C78.8141 21.1087 79.3127 20.968 79.5875 20.8786L79.1593 18.8523C79.025 18.8778 78.7374 18.9418 78.4817 18.9418C77.9384 18.9418 77.5613 18.7372 77.5613 17.983V13.2273H79.4086V11.1818ZM84.9009 10.1911H88.9087V21H91.6445V10.1911H95.6523V7.90909H84.9009V10.1911ZM96.3523 21H99.0753V15.4453C99.0753 14.2372 99.9574 13.4062 101.159 13.4062C101.536 13.4062 102.054 13.4702 102.31 13.5533V11.1371C102.067 11.0795 101.728 11.0412 101.453 11.0412C100.354 11.0412 99.4524 11.6804 99.0945 12.8949H98.9922V11.1818H96.3523V21ZM103.718 21H106.441V11.1818H103.718V21ZM105.085 9.91619C105.897 9.91619 106.562 9.29616 106.562 8.53551C106.562 7.78125 105.897 7.16122 105.085 7.16122C104.28 7.16122 103.615 7.78125 103.615 8.53551C103.615 9.29616 104.28 9.91619 105.085 9.91619ZM113.045 24.8864C115.851 24.8864 117.846 23.608 117.846 21.0959V11.1818H115.142V12.831H115.039C114.675 12.032 113.876 11.054 112.233 11.054C110.079 11.054 108.257 12.7287 108.257 16.0717C108.257 19.3381 110.028 20.8594 112.24 20.8594C113.806 20.8594 114.681 20.0732 115.039 19.2614H115.154V21.0575C115.154 22.4062 114.292 22.9304 113.109 22.9304C111.907 22.9304 111.3 22.4062 111.076 21.8118L108.558 22.1506C108.884 23.6974 110.399 24.8864 113.045 24.8864ZM113.103 18.8139C111.767 18.8139 111.038 17.7528 111.038 16.0589C111.038 14.3906 111.754 13.2209 113.103 13.2209C114.426 13.2209 115.167 14.3395 115.167 16.0589C115.167 17.7912 114.413 18.8139 113.103 18.8139ZM124.436 24.8864C127.242 24.8864 129.236 23.608 129.236 21.0959V11.1818H126.532V12.831H126.43C126.066 12.032 125.267 11.054 123.624 11.054C121.47 11.054 119.648 12.7287 119.648 16.0717C119.648 19.3381 121.419 20.8594 123.63 20.8594C125.196 20.8594 126.072 20.0732 126.43 19.2614H126.545V21.0575C126.545 22.4062 125.682 22.9304 124.5 22.9304C123.298 22.9304 122.691 22.4062 122.467 21.8118L119.949 22.1506C120.275 23.6974 121.789 24.8864 124.436 24.8864ZM124.493 18.8139C123.157 18.8139 122.429 17.7528 122.429 16.0589C122.429 14.3906 123.145 13.2209 124.493 13.2209C125.816 13.2209 126.558 14.3395 126.558 16.0589C126.558 17.7912 125.804 18.8139 124.493 18.8139ZM135.877 21.1918C138.306 21.1918 139.943 20.0092 140.326 18.1875L137.808 18.0213C137.533 18.7692 136.83 19.1591 135.922 19.1591C134.561 19.1591 133.698 18.2578 133.698 16.794V16.7876H140.384V16.0398C140.384 12.7031 138.364 11.054 135.769 11.054C132.88 11.054 131.007 13.1058 131.007 16.1357C131.007 19.2486 132.854 21.1918 135.877 21.1918ZM133.698 15.1001C133.755 13.9815 134.605 13.0866 135.814 13.0866C136.996 13.0866 137.814 13.9304 137.821 15.1001H133.698ZM142.161 21H144.884V15.4453C144.884 14.2372 145.766 13.4062 146.968 13.4062C147.345 13.4062 147.863 13.4702 148.118 13.5533V11.1371C147.875 11.0795 147.537 11.0412 147.262 11.0412C146.162 11.0412 145.261 11.6804 144.903 12.8949H144.801V11.1818H142.161V21Z" fill="#F1F5F9"/>
<g opacity="0.75">
<path d="M44.4677 33.4545V34.4773H40.7688V33.4545H44.4677ZM41.783 40V32.696C41.783 32.2869 41.8725 31.9474 42.0515 31.6776C42.2305 31.4048 42.4677 31.2017 42.7631 31.0682C43.0586 30.9318 43.3796 30.8636 43.7262 30.8636C43.9819 30.8636 44.2006 30.8849 44.3825 30.9276C44.5643 30.9673 44.6992 31.0043 44.7873 31.0384L44.489 32.0696C44.4293 32.0526 44.3526 32.0327 44.2589 32.0099C44.1651 31.9844 44.0515 31.9716 43.918 31.9716C43.6083 31.9716 43.3867 32.0483 43.2532 32.2017C43.1225 32.3551 43.0572 32.5767 43.0572 32.8665V40H41.783ZM48.2816 40.1321C47.668 40.1321 47.1325 39.9915 46.6751 39.7102C46.2177 39.429 45.8626 39.0355 45.6097 38.5298C45.3569 38.0241 45.2305 37.4332 45.2305 36.7571C45.2305 36.0781 45.3569 35.4844 45.6097 34.9759C45.8626 34.4673 46.2177 34.0724 46.6751 33.7912C47.1325 33.5099 47.668 33.3693 48.2816 33.3693C48.8952 33.3693 49.4308 33.5099 49.8881 33.7912C50.3455 34.0724 50.7006 34.4673 50.9535 34.9759C51.2063 35.4844 51.3327 36.0781 51.3327 36.7571C51.3327 37.4332 51.2063 38.0241 50.9535 38.5298C50.7006 39.0355 50.3455 39.429 49.8881 39.7102C49.4308 39.9915 48.8952 40.1321 48.2816 40.1321ZM48.2859 39.0625C48.6836 39.0625 49.0131 38.9574 49.2745 38.7472C49.5359 38.5369 49.729 38.2571 49.854 37.9077C49.9819 37.5582 50.0458 37.1733 50.0458 36.7528C50.0458 36.3352 49.9819 35.9517 49.854 35.6023C49.729 35.25 49.5359 34.9673 49.2745 34.7543C49.0131 34.5412 48.6836 34.4347 48.2859 34.4347C47.8853 34.4347 47.5529 34.5412 47.2887 34.7543C47.0273 34.9673 46.8327 35.25 46.7049 35.6023C46.5799 35.9517 46.5174 36.3352 46.5174 36.7528C46.5174 37.1733 46.5799 37.5582 46.7049 37.9077C46.8327 38.2571 47.0273 38.5369 47.2887 38.7472C47.5529 38.9574 47.8853 39.0625 48.2859 39.0625ZM52.755 40V33.4545H53.9865V34.4943H54.0547C54.174 34.142 54.3842 33.8651 54.6854 33.6634C54.9893 33.4588 55.3331 33.3565 55.7166 33.3565C55.7962 33.3565 55.8899 33.3594 55.9979 33.3651C56.1087 33.3707 56.1953 33.3778 56.2578 33.3864V34.6051C56.2067 34.5909 56.1158 34.5753 55.9851 34.5582C55.8544 34.5384 55.7237 34.5284 55.593 34.5284C55.2919 34.5284 55.0234 34.5923 54.7876 34.7202C54.5547 34.8452 54.37 35.0199 54.2337 35.2443C54.0973 35.4659 54.0291 35.7187 54.0291 36.0028V40H52.755Z" fill="#F8FAFC"/>
<g clip-path="url(#clip0_1050_9004)">
<path d="M72.4378 37.4765V32.3088H63.4762C62.2508 32.3088 61.2491 33.3504 61.2491 34.6189V39.8769H70.1202C71.2321 39.8769 72.4378 38.9116 72.4378 37.4765Z" fill="white"/>
<path d="M78.26 34.4964C78.26 34.4964 78.26 35.5226 78.26 38.9906H77.1337V33.4415H81.538V34.4961L78.26 34.4964Z" fill="white"/>
<path d="M87.6035 36.7456H86.3652V35.691H87.6035C88.139 35.691 88.4758 35.5083 88.5604 34.4967H84.1019V37.9511H88.462V38.9912H82.9738V33.4418H89.6996V34.0099C89.6993 35.354 89.4484 36.7456 87.6035 36.7456Z" fill="white"/>
<path d="M93.7236 34.4964L95.3725 36.4383C95.9194 37.0645 96.3559 37.5331 96.3559 38.2851V38.9906H90.5441V37.9503H95.0759L93.457 35.966C92.9074 35.2872 92.4721 34.9263 92.4721 33.9673V33.4409H98.2423V34.4955C94.7664 34.4964 93.7236 34.4964 93.7236 34.4964Z" fill="white"/>
<path d="M104.404 38.9909H99.5099V35.1338C99.5099 34.2038 100.283 33.4412 101.225 33.4412H106.191V37.2299C106.191 38.2854 105.261 38.9909 104.404 38.9909ZM105.066 34.4963H101.225C100.944 34.4963 100.634 34.7323 100.634 35.0796V37.9508H104.403C104.673 37.9508 105.066 37.7039 105.066 37.2998V34.4966L105.066 34.4963Z" fill="white"/>
<path d="M108.373 38.9909V30.2073H109.5V38.9909H108.373Z" fill="white"/>
<path d="M117.35 38.9909V36.9111C117.098 38.1318 115.268 38.9909 113.466 38.9909H111.749V33.4415H112.875V37.9509H113.762C115.618 37.9509 117.35 36.605 117.35 34.4964V33.4418H118.477V38.9915H117.35V38.9909Z" fill="white"/>
<path d="M131.93 38.9909V34.4964H131.043C129.185 34.4964 127.455 35.8426 127.455 37.9509V38.9909H126.33V34.4967H125.441C123.586 34.4967 121.853 35.8426 121.853 37.9515V38.9915H120.726V33.4421H121.853V35.5232C122.108 34.3013 123.937 33.4421 125.737 33.4421H127.456V35.5232C127.711 34.3013 129.536 33.4421 131.34 33.4421H133.057V38.9915H131.93V38.9909H131.93Z" fill="white"/>
<path d="M139.937 36.7456H138.698V35.691H139.937C140.471 35.691 140.808 35.5083 140.892 34.4967H136.433V37.9511H140.794V38.9912H135.307V33.4418H142.033V34.0099C142.033 35.354 141.781 36.7456 139.937 36.7456Z" fill="white"/>
</g>
</g>
<defs>
<clipPath id="clip0_1050_9004">
<rect width="81.3333" height="12" fill="white" transform="translate(61 30)"/>
</clipPath>
</defs>
</svg>
