<svg width="145" height="32" viewBox="0 0 145 32" fill="none" xmlns="http://www.w3.org/2000/svg">
<g opacity="0.9">
<g style="mix-blend-mode:lighten">
<rect x="3.08179" y="13.7666" width="1.16364" height="4.4375" rx="0.581818" fill="#F1F5F9"/>
</g>
<g style="mix-blend-mode:lighten">
<rect x="5.58179" y="9.5166" width="1.16364" height="12.9375" rx="0.581818" fill="#F1F5F9"/>
</g>
<g style="mix-blend-mode:lighten">
<rect x="8.08179" y="12.2666" width="1.16364" height="7.4375" rx="0.581818" fill="#F1F5F9"/>
</g>
<g style="mix-blend-mode:lighten">
<rect x="10.5818" y="10.7666" width="1.16364" height="10.4375" rx="0.581818" fill="#F1F5F9"/>
</g>
<g style="mix-blend-mode:lighten">
<rect x="13.0818" y="6.5166" width="1.16364" height="18.9375" rx="0.581818" fill="#F1F5F9"/>
</g>
<g style="mix-blend-mode:lighten">
<rect x="15.5818" y="4.2666" width="1.16364" height="23.4375" rx="0.581818" fill="#F1F5F9"/>
</g>
<g style="mix-blend-mode:lighten">
<rect x="18.0818" y="6.5166" width="1.16364" height="18.9375" rx="0.581818" fill="#F1F5F9"/>
</g>
<g style="mix-blend-mode:lighten">
<rect x="20.5818" y="10.7666" width="1.16364" height="10.4375" rx="0.581818" fill="#F1F5F9"/>
</g>
<g style="mix-blend-mode:lighten">
<rect x="23.0818" y="12.2666" width="1.16364" height="7.4375" rx="0.581818" fill="#F1F5F9"/>
</g>
<g style="mix-blend-mode:lighten">
<rect x="25.5818" y="9.5166" width="1.16364" height="12.9375" rx="0.581818" fill="#F1F5F9"/>
</g>
<g style="mix-blend-mode:lighten">
<rect x="28.0818" y="13.7666" width="1.16364" height="4.4375" rx="0.581819" fill="#F1F5F9"/>
</g>
</g>
<path d="M37.1378 23H42.7308C45.6712 23 47.2372 21.4659 47.2372 19.3821C47.2372 17.4453 45.8501 16.2756 44.3608 16.2053V16.0774C45.7223 15.7706 46.7259 14.8054 46.7259 13.2649C46.7259 11.3026 45.2685 9.90909 42.3793 9.90909H37.1378V23ZM39.9055 20.7372V17.2599H42.2259C43.5554 17.2599 44.38 18.027 44.38 19.1072C44.38 20.0916 43.7088 20.7372 42.1619 20.7372H39.9055ZM39.9055 15.3871V12.1463H42.0085C43.2358 12.1463 43.9325 12.7791 43.9325 13.7251C43.9325 14.7607 43.0888 15.3871 41.9574 15.3871H39.9055ZM53.4615 23.1918C55.8904 23.1918 57.5268 22.0092 57.9103 20.1875L55.3919 20.0213C55.117 20.7692 54.4139 21.1591 53.5062 21.1591C52.1447 21.1591 51.2818 20.2578 51.2818 18.794V18.7876H57.9679V18.0398C57.9679 14.7031 55.948 13.054 53.3528 13.054C50.4636 13.054 48.5907 15.1058 48.5907 18.1357C48.5907 21.2486 50.438 23.1918 53.4615 23.1918ZM51.2818 17.1001C51.3393 15.9815 52.1895 15.0866 53.3976 15.0866C54.5801 15.0866 55.3983 15.9304 55.4047 17.1001H51.2818ZM62.5446 23.1854C63.9956 23.1854 64.9352 22.5526 65.4146 21.6385H65.4913V23H68.0737V16.3778C68.0737 14.0384 66.0922 13.054 63.9061 13.054C61.5538 13.054 60.0069 14.179 59.6298 15.9688L62.1483 16.1733C62.3336 15.5213 62.9153 15.0419 63.8933 15.0419C64.8201 15.0419 65.3507 15.5085 65.3507 16.3139V16.3523C65.3507 16.9851 64.6795 17.0682 62.9728 17.2344C61.0297 17.4134 59.2846 18.0653 59.2846 20.2578C59.2846 22.201 60.6717 23.1854 62.5446 23.1854ZM63.3244 21.3061C62.487 21.3061 61.8862 20.9162 61.8862 20.1683C61.8862 19.4013 62.519 19.0241 63.4778 18.8899C64.0723 18.8068 65.0439 18.6662 65.3699 18.4489V19.4908C65.3699 20.5199 64.5197 21.3061 63.3244 21.3061ZM75.4086 13.1818H73.5613V10.8295H70.8382V13.1818H69.4959V15.2273H70.8382V20.3409C70.8255 22.2649 72.1358 23.2173 74.111 23.1342C74.8141 23.1087 75.3127 22.968 75.5875 22.8786L75.1593 20.8523C75.025 20.8778 74.7374 20.9418 74.4817 20.9418C73.9384 20.9418 73.5613 20.7372 73.5613 19.983V15.2273H75.4086V13.1818ZM80.9009 12.1911H84.9087V23H87.6445V12.1911H91.6523V9.90909H80.9009V12.1911ZM92.3523 23H95.0753V17.4453C95.0753 16.2372 95.9574 15.4062 97.1591 15.4062C97.5362 15.4062 98.054 15.4702 98.3097 15.5533V13.1371C98.0668 13.0795 97.728 13.0412 97.4531 13.0412C96.3537 13.0412 95.4524 13.6804 95.0945 14.8949H94.9922V13.1818H92.3523V23ZM99.7175 23H102.441V13.1818H99.7175V23ZM101.085 11.9162C101.897 11.9162 102.562 11.2962 102.562 10.5355C102.562 9.78125 101.897 9.16122 101.085 9.16122C100.28 9.16122 99.6152 9.78125 99.6152 10.5355C99.6152 11.2962 100.28 11.9162 101.085 11.9162ZM109.045 26.8864C111.851 26.8864 113.846 25.608 113.846 23.0959V13.1818H111.142V14.831H111.039C110.675 14.032 109.876 13.054 108.233 13.054C106.079 13.054 104.257 14.7287 104.257 18.0717C104.257 21.3381 106.028 22.8594 108.24 22.8594C109.806 22.8594 110.681 22.0732 111.039 21.2614H111.154V23.0575C111.154 24.4062 110.292 24.9304 109.109 24.9304C107.907 24.9304 107.3 24.4062 107.076 23.8118L104.558 24.1506C104.884 25.6974 106.399 26.8864 109.045 26.8864ZM109.103 20.8139C107.767 20.8139 107.038 19.7528 107.038 18.0589C107.038 16.3906 107.754 15.2209 109.103 15.2209C110.426 15.2209 111.167 16.3395 111.167 18.0589C111.167 19.7912 110.413 20.8139 109.103 20.8139ZM120.436 26.8864C123.242 26.8864 125.236 25.608 125.236 23.0959V13.1818H122.532V14.831H122.43C122.066 14.032 121.267 13.054 119.624 13.054C117.47 13.054 115.648 14.7287 115.648 18.0717C115.648 21.3381 117.419 22.8594 119.63 22.8594C121.196 22.8594 122.072 22.0732 122.43 21.2614H122.545V23.0575C122.545 24.4062 121.682 24.9304 120.5 24.9304C119.298 24.9304 118.691 24.4062 118.467 23.8118L115.949 24.1506C116.275 25.6974 117.789 26.8864 120.436 26.8864ZM120.493 20.8139C119.157 20.8139 118.429 19.7528 118.429 18.0589C118.429 16.3906 119.145 15.2209 120.493 15.2209C121.816 15.2209 122.558 16.3395 122.558 18.0589C122.558 19.7912 121.804 20.8139 120.493 20.8139ZM131.877 23.1918C134.306 23.1918 135.943 22.0092 136.326 20.1875L133.808 20.0213C133.533 20.7692 132.83 21.1591 131.922 21.1591C130.561 21.1591 129.698 20.2578 129.698 18.794V18.7876H136.384V18.0398C136.384 14.7031 134.364 13.054 131.769 13.054C128.88 13.054 127.007 15.1058 127.007 18.1357C127.007 21.2486 128.854 23.1918 131.877 23.1918ZM129.698 17.1001C129.755 15.9815 130.605 15.0866 131.814 15.0866C132.996 15.0866 133.814 15.9304 133.821 17.1001H129.698ZM138.161 23H140.884V17.4453C140.884 16.2372 141.766 15.4062 142.968 15.4062C143.345 15.4062 143.863 15.4702 144.118 15.5533V13.1371C143.875 13.0795 143.537 13.0412 143.262 13.0412C142.162 13.0412 141.261 13.6804 140.903 14.8949H140.801V13.1818H138.161V23Z" fill="#F1F5F9"/>
</svg>
