<?xml version="1.0" encoding="utf-8"?>
<!-- Generator: Adobe Illustrator 16.0.0, SVG Export Plug-In . SVG Version: 6.00 Build 0)  -->
<!DOCTYPE svg PUBLIC "-//W3C//DTD SVG 1.1//EN" "http://www.w3.org/Graphics/SVG/1.1/DTD/svg11.dtd">
<svg version="1.1" id="Layer_1" xmlns="http://www.w3.org/2000/svg" xmlns:xlink="http://www.w3.org/1999/xlink" x="0px" y="0px"
	 width="265.167px" height="39.667px" viewBox="-0.812 -0.685 265.167 39.667"
	 enable-background="new -0.812 -0.685 265.167 39.667" xml:space="preserve">
<g>
	<path fill="#FFFFFF" d="M36.478,24.029V6.947H7.261C3.266,6.947,0,10.39,0,14.583v17.381h28.922
		C32.547,31.964,36.478,28.773,36.478,24.029z"/>
	<g>
		<path fill="#FFFFFF" d="M55.46,14.178c0,0,0,3.392,0,14.856h-3.672V10.691h14.359v3.486L55.46,14.178L55.46,14.178z"/>
		<path fill="#FFFFFF" d="M85.922,21.613h-4.037v-3.486h4.037c1.746,0,2.844-0.604,3.12-3.948H74.506v11.419h14.215v3.438H70.828
			V10.692h21.928v1.878C92.755,17.013,91.937,21.613,85.922,21.613z"/>
		<path fill="#FFFFFF" d="M105.875,14.178l5.376,6.419c1.783,2.07,3.206,3.619,3.206,6.105v2.332H95.509v-3.439h14.775l-5.278-6.559
			c-1.792-2.244-3.211-3.437-3.211-6.607v-1.74h18.812v3.486C109.275,14.178,105.875,14.178,105.875,14.178z"/>
		<path fill="#FFFFFF" d="M140.695,29.035H124.74v-12.75c0-3.074,2.521-5.595,5.59-5.595h16.192v12.524
			C146.523,26.703,143.49,29.035,140.695,29.035z M142.855,14.178H130.33c-0.916,0-1.926,0.78-1.926,1.928v9.491h12.29
			c0.879,0,2.16-0.816,2.16-2.152v-9.266L142.855,14.178L142.855,14.178z"/>
		<path fill="#FFFFFF" d="M153.637,29.035V0h3.674v29.035H153.637z"/>
		<path fill="#FFFFFF" d="M182.904,29.035V22.16c-0.824,4.035-6.789,6.875-12.662,6.875h-5.598V10.691h3.668v14.906h2.895
			c6.051,0,11.697-4.449,11.697-11.419v-3.486h3.674v18.345h-3.674V29.035z"/>
		<path fill="#FFFFFF" d="M230.436,29.035V14.178h-2.891c-6.057,0-11.697,4.45-11.697,11.419v3.438h-3.668V14.179h-2.898
			c-6.049,0-11.697,4.449-11.697,11.42v3.438h-3.674V10.693h3.674v6.879c0.83-4.039,6.793-6.879,12.662-6.879h5.604v6.879
			c0.83-4.039,6.783-6.879,12.662-6.879h5.598v18.344h-3.674V29.035L230.436,29.035z"/>
		<path fill="#FFFFFF" d="M256.541,21.613h-4.039v-3.486h4.039c1.744,0,2.84-0.604,3.115-3.948h-14.537v11.419h14.217v3.438h-17.889
			V10.692h21.928v1.878C263.375,17.013,262.553,21.613,256.541,21.613z"/>
	</g>
</g>
</svg>
