<svg width="24" height="24" viewBox="0 0 24 24" fill="none" xmlns="http://www.w3.org/2000/svg">
<rect width="24" height="24" rx="4" fill="#F8FAFC"/>
<g clip-path="url(#clip0_1019_8352)">
<g opacity="0.9">
<rect x="3.13489" y="10.4674" width="0.798545" height="3.04523" rx="0.399273" fill="#0891B2"/>
<rect x="4.85046" y="7.5508" width="0.798545" height="8.87836" rx="0.399273" fill="#0891B2"/>
<rect x="6.56616" y="9.438" width="0.798545" height="5.10398" rx="0.399273" fill="#0891B2"/>
<rect x="8.28174" y="8.40862" width="0.798545" height="7.16273" rx="0.399273" fill="#0891B2"/>
<rect x="9.99731" y="5.49206" width="0.798545" height="12.9959" rx="0.399273" fill="#0891B2"/>
<rect x="11.713" y="3.948" width="0.798545" height="16.084" rx="0.399273" fill="#0891B2"/>
<rect x="13.4286" y="5.49206" width="0.798545" height="12.9959" rx="0.399273" fill="#0891B2"/>
<rect x="15.1443" y="8.40862" width="0.798545" height="7.16273" rx="0.399273" fill="#0891B2"/>
<rect x="16.8599" y="9.438" width="0.798545" height="5.10398" rx="0.399273" fill="#0891B2"/>
<rect x="18.5754" y="7.5508" width="0.798545" height="8.87836" rx="0.399273" fill="#0891B2"/>
<rect x="20.2911" y="10.4674" width="0.798545" height="3.04523" rx="0.399273" fill="#0891B2"/>
</g>
</g>
<defs>
<clipPath id="clip0_1019_8352">
<rect width="21.96" height="21.96" fill="white" transform="translate(1.02002 1.02)"/>
</clipPath>
</defs>
</svg>
