<svg width="24" height="24" viewBox="0 0 24 24" fill="none" xmlns="http://www.w3.org/2000/svg">
<rect width="24" height="24" rx="4" fill="#06B6D4"/>
<g clip-path="url(#clip0_1021_9487)">
<g opacity="0.9">
<rect x="3.13477" y="10.4674" width="0.798545" height="3.04523" rx="0.399273" fill="#F8FAFC"/>
<rect x="4.85059" y="7.55081" width="0.798545" height="8.87836" rx="0.399273" fill="#F8FAFC"/>
<rect x="6.56616" y="9.43799" width="0.798545" height="5.10398" rx="0.399273" fill="#F8FAFC"/>
<rect x="8.28174" y="8.40863" width="0.798545" height="7.16273" rx="0.399273" fill="#F8FAFC"/>
<rect x="9.99731" y="5.49207" width="0.798545" height="12.9959" rx="0.399273" fill="#F8FAFC"/>
<rect x="11.7129" y="3.948" width="0.798545" height="16.084" rx="0.399273" fill="#F8FAFC"/>
<rect x="13.4287" y="5.49207" width="0.798545" height="12.9959" rx="0.399273" fill="#F8FAFC"/>
<rect x="15.1443" y="8.40863" width="0.798545" height="7.16273" rx="0.399273" fill="#F8FAFC"/>
<rect x="16.8599" y="9.43799" width="0.798545" height="5.10398" rx="0.399273" fill="#F8FAFC"/>
<rect x="18.5754" y="7.55081" width="0.798545" height="8.87836" rx="0.399273" fill="#F8FAFC"/>
<rect x="20.291" y="10.4674" width="0.798545" height="3.04523" rx="0.399273" fill="#F8FAFC"/>
</g>
</g>
<defs>
<clipPath id="clip0_1021_9487">
<rect width="21.96" height="21.96" fill="white" transform="translate(1.02002 1.01999)"/>
</clipPath>
</defs>
</svg>
